# xmcd
#
# Track frame offsets:
#	150
#	14421
#	28170
#	42574
#	62394
#	77193
#	95360
#	109580
#	128134
#	142957
#	158323
#	173831
#
# Disc length: 2574 seconds
#
# Revision: 2
# Processed by: cddbd v1.5.2PL0 Copyright (c) Steve Scherf et al.
# Submitted via: EasyCDDAExtractor 15.3.0.1
#
DISCID=8f0a0c0c
DTITLE=Yuri - Mi Hijita Linda
DYEAR=2008
DGENRE=Latin
TTITLE0=Si Mi Hijita Linda
TTITLE1=Ya No Me Ames
TTITLE2=La Mucura (Featuring Nigga)
TTITLE3=Me Has Hechado Al Olvido
TTITLE4=Pepe
TTITLE5=Salvemos Nuestro Amor
TTITLE6=La Bamba
TTITLE7=Lo Que Son Las Cosas
TTITLE8=La Pollera Colora
TTITLE9=Estupida Romantica
TTITLE10=Maria Cristina
TTITLE11=La Bamba (Bonus Track) (Version Infantil)
EXTD=
EXTT0=
EXTT1=
EXTT2=
EXTT3=
EXTT4=
EXTT5=
EXTT6=
EXTT7=
EXTT8=
EXTT9=
EXTT10=
EXTT11=
PLAYORDER=
